<mxfile host="app.diagrams.net" agent="Mozilla/5.0 (Windows NT 10.0; Win64; x64) AppleWebKit/537.36 (KHTML, like Gecko) Chrome/134.0.0.0 Safari/537.36" version="26.1.1">
  <diagram name="Page-1" id="A3mTkO7SgK0JlaZaTAL5">
    <mxGraphModel dx="1434" dy="1872" grid="1" gridSize="10" guides="1" tooltips="1" connect="1" arrows="1" fold="1" page="1" pageScale="1" pageWidth="850" pageHeight="1100" math="0" shadow="0">
      <root>
        <mxCell id="0" />
        <mxCell id="1" parent="0" />
        <mxCell id="R6kTf19P3XNW4TCcXgIK-98" value="&amp;lt;extend&amp;gt;" style="text;html=1;align=center;verticalAlign=middle;whiteSpace=wrap;rounded=0;movable=1;resizable=1;rotatable=1;deletable=1;editable=1;locked=0;connectable=1;rotation=45;" parent="1" vertex="1">
          <mxGeometry x="240" y="-40" width="60" height="30" as="geometry" />
        </mxCell>
        <mxCell id="R6kTf19P3XNW4TCcXgIK-68" style="edgeStyle=orthogonalEdgeStyle;rounded=0;orthogonalLoop=1;jettySize=auto;html=1;" parent="1" source="R6kTf19P3XNW4TCcXgIK-1" target="R6kTf19P3XNW4TCcXgIK-26" edge="1">
          <mxGeometry relative="1" as="geometry">
            <mxPoint x="75" y="680" as="targetPoint" />
            <Array as="points">
              <mxPoint x="250" y="505" />
            </Array>
          </mxGeometry>
        </mxCell>
        <mxCell id="R6kTf19P3XNW4TCcXgIK-1" value="User&lt;div&gt;&lt;br&gt;&lt;/div&gt;" style="shape=umlActor;verticalLabelPosition=bottom;verticalAlign=top;html=1;" parent="1" vertex="1">
          <mxGeometry x="50" y="460" width="50" height="90" as="geometry" />
        </mxCell>
        <mxCell id="R6kTf19P3XNW4TCcXgIK-9" value="Marketplace" style="rounded=1;whiteSpace=wrap;html=1;" parent="1" vertex="1">
          <mxGeometry x="140" y="140" width="235" height="100" as="geometry" />
        </mxCell>
        <mxCell id="R6kTf19P3XNW4TCcXgIK-11" value="Filter items" style="rounded=1;whiteSpace=wrap;html=1;" parent="1" vertex="1">
          <mxGeometry x="460" y="90" width="150" height="70" as="geometry" />
        </mxCell>
        <mxCell id="R6kTf19P3XNW4TCcXgIK-92" style="edgeStyle=orthogonalEdgeStyle;rounded=0;orthogonalLoop=1;jettySize=auto;html=1;entryX=1;entryY=0.5;entryDx=0;entryDy=0;" parent="1" source="R6kTf19P3XNW4TCcXgIK-14" target="R6kTf19P3XNW4TCcXgIK-11" edge="1">
          <mxGeometry relative="1" as="geometry" />
        </mxCell>
        <mxCell id="R6kTf19P3XNW4TCcXgIK-14" value="Filter by game" style="rounded=1;whiteSpace=wrap;html=1;" parent="1" vertex="1">
          <mxGeometry x="720" y="30" width="120" height="60" as="geometry" />
        </mxCell>
        <mxCell id="R6kTf19P3XNW4TCcXgIK-91" style="edgeStyle=orthogonalEdgeStyle;rounded=0;orthogonalLoop=1;jettySize=auto;html=1;entryX=1;entryY=0.5;entryDx=0;entryDy=0;" parent="1" source="R6kTf19P3XNW4TCcXgIK-16" target="R6kTf19P3XNW4TCcXgIK-11" edge="1">
          <mxGeometry relative="1" as="geometry" />
        </mxCell>
        <mxCell id="R6kTf19P3XNW4TCcXgIK-16" value="Filter by price" style="rounded=1;whiteSpace=wrap;html=1;" parent="1" vertex="1">
          <mxGeometry x="720" y="150" width="120" height="60" as="geometry" />
        </mxCell>
        <mxCell id="R6kTf19P3XNW4TCcXgIK-90" style="edgeStyle=orthogonalEdgeStyle;rounded=0;orthogonalLoop=1;jettySize=auto;html=1;entryX=1;entryY=0.5;entryDx=0;entryDy=0;" parent="1" source="R6kTf19P3XNW4TCcXgIK-17" target="R6kTf19P3XNW4TCcXgIK-14" edge="1">
          <mxGeometry relative="1" as="geometry" />
        </mxCell>
        <mxCell id="R6kTf19P3XNW4TCcXgIK-17" value="Filter by in-game item types" style="rounded=1;whiteSpace=wrap;html=1;" parent="1" vertex="1">
          <mxGeometry x="910" y="30" width="120" height="60" as="geometry" />
        </mxCell>
        <mxCell id="R6kTf19P3XNW4TCcXgIK-22" value="Search items" style="rounded=1;whiteSpace=wrap;html=1;" parent="1" vertex="1">
          <mxGeometry x="90" y="10" width="120" height="60" as="geometry" />
        </mxCell>
        <mxCell id="R6kTf19P3XNW4TCcXgIK-26" value="Inventory" style="rounded=1;whiteSpace=wrap;html=1;" parent="1" vertex="1">
          <mxGeometry x="145" y="680" width="225" height="105" as="geometry" />
        </mxCell>
        <mxCell id="R6kTf19P3XNW4TCcXgIK-72" style="edgeStyle=orthogonalEdgeStyle;rounded=0;orthogonalLoop=1;jettySize=auto;html=1;entryX=0.5;entryY=1;entryDx=0;entryDy=0;" parent="1" source="R6kTf19P3XNW4TCcXgIK-30" target="R6kTf19P3XNW4TCcXgIK-55" edge="1">
          <mxGeometry relative="1" as="geometry" />
        </mxCell>
        <mxCell id="R6kTf19P3XNW4TCcXgIK-30" value="Sell Items" style="rounded=1;whiteSpace=wrap;html=1;" parent="1" vertex="1">
          <mxGeometry x="360" y="980" width="120" height="60" as="geometry" />
        </mxCell>
        <mxCell id="R6kTf19P3XNW4TCcXgIK-73" style="edgeStyle=orthogonalEdgeStyle;rounded=0;orthogonalLoop=1;jettySize=auto;html=1;entryX=0.5;entryY=1;entryDx=0;entryDy=0;" parent="1" source="R6kTf19P3XNW4TCcXgIK-32" target="R6kTf19P3XNW4TCcXgIK-55" edge="1">
          <mxGeometry relative="1" as="geometry" />
        </mxCell>
        <mxCell id="R6kTf19P3XNW4TCcXgIK-32" value="Search Item" style="rounded=1;whiteSpace=wrap;html=1;" parent="1" vertex="1">
          <mxGeometry x="160" y="980" width="120" height="60" as="geometry" />
        </mxCell>
        <mxCell id="R6kTf19P3XNW4TCcXgIK-37" value="Trade Offers" style="rounded=1;whiteSpace=wrap;html=1;" parent="1" vertex="1">
          <mxGeometry x="375" y="472.5" width="140" height="80" as="geometry" />
        </mxCell>
        <mxCell id="R6kTf19P3XNW4TCcXgIK-79" style="edgeStyle=orthogonalEdgeStyle;rounded=0;orthogonalLoop=1;jettySize=auto;html=1;entryX=1;entryY=0.5;entryDx=0;entryDy=0;" parent="1" source="R6kTf19P3XNW4TCcXgIK-39" target="R6kTf19P3XNW4TCcXgIK-42" edge="1">
          <mxGeometry relative="1" as="geometry" />
        </mxCell>
        <mxCell id="R6kTf19P3XNW4TCcXgIK-39" value="Preview Trade" style="rounded=1;whiteSpace=wrap;html=1;" parent="1" vertex="1">
          <mxGeometry x="745" y="370" width="120" height="60" as="geometry" />
        </mxCell>
        <mxCell id="R6kTf19P3XNW4TCcXgIK-82" style="edgeStyle=orthogonalEdgeStyle;rounded=0;orthogonalLoop=1;jettySize=auto;html=1;entryX=1;entryY=0.25;entryDx=0;entryDy=0;" parent="1" source="R6kTf19P3XNW4TCcXgIK-42" target="R6kTf19P3XNW4TCcXgIK-37" edge="1">
          <mxGeometry relative="1" as="geometry" />
        </mxCell>
        <mxCell id="R6kTf19P3XNW4TCcXgIK-42" value="Create Trade Offer" style="rounded=1;whiteSpace=wrap;html=1;" parent="1" vertex="1">
          <mxGeometry x="585" y="370" width="120" height="60" as="geometry" />
        </mxCell>
        <mxCell id="R6kTf19P3XNW4TCcXgIK-83" style="edgeStyle=orthogonalEdgeStyle;rounded=0;orthogonalLoop=1;jettySize=auto;html=1;entryX=1;entryY=0.5;entryDx=0;entryDy=0;" parent="1" source="R6kTf19P3XNW4TCcXgIK-46" target="R6kTf19P3XNW4TCcXgIK-39" edge="1">
          <mxGeometry relative="1" as="geometry" />
        </mxCell>
        <mxCell id="R6kTf19P3XNW4TCcXgIK-46" value="Send Offer" style="rounded=1;whiteSpace=wrap;html=1;" parent="1" vertex="1">
          <mxGeometry x="915" y="370" width="120" height="60" as="geometry" />
        </mxCell>
        <mxCell id="R6kTf19P3XNW4TCcXgIK-80" style="edgeStyle=orthogonalEdgeStyle;rounded=0;orthogonalLoop=1;jettySize=auto;html=1;entryX=1;entryY=0.5;entryDx=0;entryDy=0;" parent="1" source="R6kTf19P3XNW4TCcXgIK-48" target="R6kTf19P3XNW4TCcXgIK-37" edge="1">
          <mxGeometry relative="1" as="geometry" />
        </mxCell>
        <mxCell id="R6kTf19P3XNW4TCcXgIK-48" value="Accept Trade" style="rounded=1;whiteSpace=wrap;html=1;" parent="1" vertex="1">
          <mxGeometry x="595" y="482.5" width="120" height="60" as="geometry" />
        </mxCell>
        <mxCell id="R6kTf19P3XNW4TCcXgIK-81" style="edgeStyle=orthogonalEdgeStyle;rounded=0;orthogonalLoop=1;jettySize=auto;html=1;entryX=1;entryY=0.75;entryDx=0;entryDy=0;" parent="1" source="R6kTf19P3XNW4TCcXgIK-49" target="R6kTf19P3XNW4TCcXgIK-37" edge="1">
          <mxGeometry relative="1" as="geometry" />
        </mxCell>
        <mxCell id="R6kTf19P3XNW4TCcXgIK-49" value="Decline Trade" style="rounded=1;whiteSpace=wrap;html=1;" parent="1" vertex="1">
          <mxGeometry x="595" y="600" width="120" height="60" as="geometry" />
        </mxCell>
        <mxCell id="R6kTf19P3XNW4TCcXgIK-115" style="edgeStyle=orthogonalEdgeStyle;rounded=0;orthogonalLoop=1;jettySize=auto;html=1;entryX=1;entryY=0.5;entryDx=0;entryDy=0;" parent="1" source="R6kTf19P3XNW4TCcXgIK-52" target="R6kTf19P3XNW4TCcXgIK-26" edge="1">
          <mxGeometry relative="1" as="geometry" />
        </mxCell>
        <mxCell id="R6kTf19P3XNW4TCcXgIK-52" value="Trade History" style="rounded=1;whiteSpace=wrap;html=1;" parent="1" vertex="1">
          <mxGeometry x="500" y="740" width="145" height="80" as="geometry" />
        </mxCell>
        <mxCell id="R6kTf19P3XNW4TCcXgIK-55" value="Filter by Game" style="rounded=1;whiteSpace=wrap;html=1;" parent="1" vertex="1">
          <mxGeometry x="242.5" y="850" width="140" height="70" as="geometry" />
        </mxCell>
        <mxCell id="R6kTf19P3XNW4TCcXgIK-60" value="Item" style="rounded=1;whiteSpace=wrap;html=1;" parent="1" vertex="1">
          <mxGeometry x="290" y="10" width="120" height="60" as="geometry" />
        </mxCell>
        <mxCell id="R6kTf19P3XNW4TCcXgIK-62" value="Buy Item" style="rounded=1;whiteSpace=wrap;html=1;" parent="1" vertex="1">
          <mxGeometry x="210" y="-110" width="120" height="60" as="geometry" />
        </mxCell>
        <mxCell id="R6kTf19P3XNW4TCcXgIK-64" value="Sell Item" style="rounded=1;whiteSpace=wrap;html=1;" parent="1" vertex="1">
          <mxGeometry x="385" y="-110" width="120" height="60" as="geometry" />
        </mxCell>
        <mxCell id="R6kTf19P3XNW4TCcXgIK-66" value="Active Listings" style="rounded=1;whiteSpace=wrap;html=1;" parent="1" vertex="1">
          <mxGeometry x="470" y="240" width="140" height="70" as="geometry" />
        </mxCell>
        <mxCell id="R6kTf19P3XNW4TCcXgIK-71" style="edgeStyle=orthogonalEdgeStyle;rounded=0;orthogonalLoop=1;jettySize=auto;html=1;entryX=0.465;entryY=1.05;entryDx=0;entryDy=0;entryPerimeter=0;" parent="1" source="R6kTf19P3XNW4TCcXgIK-1" target="R6kTf19P3XNW4TCcXgIK-9" edge="1">
          <mxGeometry relative="1" as="geometry" />
        </mxCell>
        <mxCell id="R6kTf19P3XNW4TCcXgIK-93" style="edgeStyle=orthogonalEdgeStyle;rounded=0;orthogonalLoop=1;jettySize=auto;html=1;exitX=0.5;exitY=1;exitDx=0;exitDy=0;" parent="1" source="R6kTf19P3XNW4TCcXgIK-46" target="R6kTf19P3XNW4TCcXgIK-46" edge="1">
          <mxGeometry relative="1" as="geometry" />
        </mxCell>
        <mxCell id="R6kTf19P3XNW4TCcXgIK-96" value="" style="endArrow=none;dashed=1;html=1;rounded=0;entryX=0.5;entryY=1;entryDx=0;entryDy=0;entryPerimeter=0;exitX=0.396;exitY=-0.008;exitDx=0;exitDy=0;exitPerimeter=0;movable=1;resizable=1;rotatable=1;deletable=1;editable=1;locked=0;connectable=1;" parent="1" edge="1">
          <mxGeometry width="50" height="50" relative="1" as="geometry">
            <mxPoint x="327.52" y="9.519999999999982" as="sourcePoint" />
            <mxPoint x="260" y="-50" as="targetPoint" />
          </mxGeometry>
        </mxCell>
        <mxCell id="R6kTf19P3XNW4TCcXgIK-97" value="" style="endArrow=none;dashed=1;html=1;rounded=0;entryX=0.444;entryY=1.033;entryDx=0;entryDy=0;entryPerimeter=0;exitX=0.583;exitY=0;exitDx=0;exitDy=0;exitPerimeter=0;" parent="1" source="R6kTf19P3XNW4TCcXgIK-60" target="R6kTf19P3XNW4TCcXgIK-64" edge="1">
          <mxGeometry width="50" height="50" relative="1" as="geometry">
            <mxPoint x="528" y="10" as="sourcePoint" />
            <mxPoint x="460" y="-50" as="targetPoint" />
          </mxGeometry>
        </mxCell>
        <mxCell id="R6kTf19P3XNW4TCcXgIK-101" value="&amp;lt;extend&amp;gt;" style="text;html=1;align=center;verticalAlign=middle;whiteSpace=wrap;rounded=0;movable=1;resizable=1;rotatable=1;deletable=1;editable=1;locked=0;connectable=1;rotation=-40;" parent="1" vertex="1">
          <mxGeometry x="400" y="-40" width="60" height="30" as="geometry" />
        </mxCell>
        <mxCell id="R6kTf19P3XNW4TCcXgIK-102" value="" style="endArrow=none;dashed=1;html=1;rounded=0;exitX=0.993;exitY=0.445;exitDx=0;exitDy=0;exitPerimeter=0;" parent="1" source="R6kTf19P3XNW4TCcXgIK-9" edge="1">
          <mxGeometry width="50" height="50" relative="1" as="geometry">
            <mxPoint x="380" y="180" as="sourcePoint" />
            <mxPoint x="460" y="120" as="targetPoint" />
          </mxGeometry>
        </mxCell>
        <mxCell id="R6kTf19P3XNW4TCcXgIK-103" value="" style="endArrow=none;dashed=1;html=1;rounded=0;entryX=0;entryY=0.5;entryDx=0;entryDy=0;exitX=1;exitY=0.5;exitDx=0;exitDy=0;" parent="1" source="R6kTf19P3XNW4TCcXgIK-9" target="R6kTf19P3XNW4TCcXgIK-66" edge="1">
          <mxGeometry width="50" height="50" relative="1" as="geometry">
            <mxPoint x="380" y="200" as="sourcePoint" />
            <mxPoint x="460" y="260" as="targetPoint" />
          </mxGeometry>
        </mxCell>
        <mxCell id="R6kTf19P3XNW4TCcXgIK-104" value="&amp;lt;include&amp;gt;" style="text;html=1;align=center;verticalAlign=middle;whiteSpace=wrap;rounded=0;rotation=40;" parent="1" vertex="1">
          <mxGeometry x="400" y="240" width="60" height="30" as="geometry" />
        </mxCell>
        <mxCell id="R6kTf19P3XNW4TCcXgIK-105" value="&amp;lt;include&amp;gt;" style="text;html=1;align=center;verticalAlign=middle;whiteSpace=wrap;rounded=0;rotation=-40;" parent="1" vertex="1">
          <mxGeometry x="400" y="140" width="60" height="30" as="geometry" />
        </mxCell>
        <mxCell id="R6kTf19P3XNW4TCcXgIK-106" value="" style="endArrow=none;dashed=1;html=1;rounded=0;exitX=0.5;exitY=0;exitDx=0;exitDy=0;" parent="1" source="R6kTf19P3XNW4TCcXgIK-9" edge="1">
          <mxGeometry width="50" height="50" relative="1" as="geometry">
            <mxPoint x="300" y="120" as="sourcePoint" />
            <mxPoint x="350" y="70" as="targetPoint" />
          </mxGeometry>
        </mxCell>
        <mxCell id="R6kTf19P3XNW4TCcXgIK-107" value="" style="endArrow=none;dashed=1;html=1;rounded=0;exitX=0.5;exitY=0;exitDx=0;exitDy=0;" parent="1" source="R6kTf19P3XNW4TCcXgIK-9" edge="1">
          <mxGeometry width="50" height="50" relative="1" as="geometry">
            <mxPoint x="60" y="140" as="sourcePoint" />
            <mxPoint x="152" y="70" as="targetPoint" />
          </mxGeometry>
        </mxCell>
        <mxCell id="R6kTf19P3XNW4TCcXgIK-108" value="&amp;lt;include&amp;gt;" style="text;html=1;align=center;verticalAlign=middle;whiteSpace=wrap;rounded=0;rotation=-40;" parent="1" vertex="1">
          <mxGeometry x="300" y="80" width="60" height="30" as="geometry" />
        </mxCell>
        <mxCell id="R6kTf19P3XNW4TCcXgIK-109" value="&amp;lt;include&amp;gt;" style="text;html=1;align=center;verticalAlign=middle;whiteSpace=wrap;rounded=0;rotation=40;" parent="1" vertex="1">
          <mxGeometry x="140" y="80" width="60" height="30" as="geometry" />
        </mxCell>
        <mxCell id="R6kTf19P3XNW4TCcXgIK-110" value="" style="endArrow=none;dashed=1;html=1;rounded=0;exitX=0.5;exitY=0;exitDx=0;exitDy=0;entryX=0.5;entryY=1;entryDx=0;entryDy=0;" parent="1" source="R6kTf19P3XNW4TCcXgIK-55" target="R6kTf19P3XNW4TCcXgIK-26" edge="1">
          <mxGeometry width="50" height="50" relative="1" as="geometry">
            <mxPoint x="270" y="835" as="sourcePoint" />
            <mxPoint x="320" y="785" as="targetPoint" />
          </mxGeometry>
        </mxCell>
        <mxCell id="R6kTf19P3XNW4TCcXgIK-112" value="&amp;lt;include&amp;gt;" style="text;html=1;align=center;verticalAlign=middle;whiteSpace=wrap;rounded=0;" parent="1" vertex="1">
          <mxGeometry x="220" y="790" width="60" height="30" as="geometry" />
        </mxCell>
        <mxCell id="R6kTf19P3XNW4TCcXgIK-114" style="edgeStyle=orthogonalEdgeStyle;rounded=0;orthogonalLoop=1;jettySize=auto;html=1;entryX=-0.012;entryY=0.41;entryDx=0;entryDy=0;entryPerimeter=0;" parent="1" source="R6kTf19P3XNW4TCcXgIK-1" target="R6kTf19P3XNW4TCcXgIK-37" edge="1">
          <mxGeometry relative="1" as="geometry" />
        </mxCell>
      </root>
    </mxGraphModel>
  </diagram>
</mxfile>
